<?xml version="1.0" standalone="no"?>
<!DOCTYPE svg PUBLIC "-//W3C//DTD SVG 20010904//EN"
 "http://www.w3.org/TR/2001/REC-SVG-20010904/DTD/svg10.dtd">
<svg version="1.0" xmlns="http://www.w3.org/2000/svg"
 width="1024.000000pt" height="75.000000pt" viewBox="0 0 1024.000000 75.000000"
 preserveAspectRatio="xMidYMid meet">

<g transform="translate(0.000000,75.000000) scale(0.100000,-0.100000)"
fill="#000000" stroke="none">
<path d="M4986 395 c-56 -60 -27 -148 34 -104 12 8 9 9 -11 5 -19 -4 -29 -1
-33 10 -7 19 15 74 38 93 21 17 33 7 16 -14 -15 -18 -5 -34 11 -18 15 15 7 47
-13 51 -10 2 -28 -8 -42 -23z"/>
<path d="M5660 410 c0 -5 5 -10 10 -10 6 0 10 5 10 10 0 6 -4 10 -10 10 -5 0
-10 -4 -10 -10z"/>
<path d="M5713 378 c-6 -7 -13 -30 -17 -51 -6 -29 -4 -39 9 -43 9 -4 21 -2 28
5 8 8 7 11 -6 11 -23 0 -21 26 3 50 11 11 15 20 9 20 -5 0 -7 5 -4 10 9 14
-11 12 -22 -2z"/>
<path d="M5067 352 c-19 -21 -22 -57 -7 -67 29 -18 77 35 64 70 -8 21 -37 19
-57 -3z m27 -39 c-19 -28 -19 -28 -22 -5 -4 28 17 57 31 43 7 -7 4 -19 -9 -38z"/>
<path d="M5155 360 c3 -5 1 -19 -5 -30 -6 -12 -10 -29 -8 -38 2 -12 9 -7 25
20 15 26 18 39 10 47 -14 14 -30 15 -22 1z"/>
<path d="M5195 360 c-3 -5 -1 -10 5 -10 7 0 8 -6 0 -19 -5 -11 -10 -28 -10
-38 0 -12 8 -5 26 20 28 43 40 44 25 4 -11 -29 3 -47 22 -28 8 8 8 11 0 11 -8
0 -8 8 0 30 13 35 3 49 -23 32 -12 -7 -20 -8 -20 -2 0 13 -17 13 -25 0z"/>
<path d="M5298 343 c-3 -16 -9 -36 -13 -45 -12 -30 9 -19 30 14 28 44 52 51
30 8 -9 -17 -13 -35 -9 -38 4 -4 9 -1 11 6 3 7 16 25 29 40 l24 27 -10 -28
c-11 -30 -6 -47 12 -47 5 0 7 7 4 16 -3 8 -1 25 5 36 14 26 -3 47 -25 29 -11
-9 -15 -9 -19 1 -3 11 -8 11 -26 0 -12 -7 -21 -8 -21 -2 0 22 -18 8 -22 -17z"/>
<path d="M5440 330 c-15 -44 -10 -56 17 -46 14 6 15 9 4 15 -10 7 -10 13 -2
29 13 25 14 42 3 42 -5 0 -15 -18 -22 -40z"/>
<path d="M5490 340 c-18 -25 -19 -34 -10 -45 16 -20 34 -19 26 0 -3 8 -1 27 5
41 14 38 5 40 -21 4z"/>
<path d="M5541 329 c-7 -23 -10 -43 -8 -45 8 -9 45 59 40 73 -9 23 -20 14 -32
-28z"/>
<path d="M5585 361 c-3 -6 -1 -11 5 -11 8 0 8 -6 0 -21 -12 -22 -7 -49 9 -49
5 0 9 10 9 23 0 12 2 31 4 41 3 21 -16 33 -27 17z"/>
<path d="M5642 331 c-15 -49 -15 -51 2 -51 8 0 14 10 14 23 0 12 3 32 7 45 4
12 3 22 -2 22 -6 0 -15 -17 -21 -39z"/>
<path d="M5760 330 c-15 -46 -8 -60 20 -42 26 16 25 2 -1 -27 -12 -12 -19 -25
-16 -27 3 -3 14 4 25 16 24 26 57 109 47 118 -4 4 -10 1 -12 -6 -3 -7 -16 -25
-30 -40 -20 -22 -23 -23 -18 -7 15 43 17 55 8 55 -5 0 -16 -18 -23 -40z"/>
</g>
</svg>
